<mxfile host="app.diagrams.net" modified="2023-10-25T11:04:02.045Z" agent="Mozilla/5.0 (Windows NT 10.0; Win64; x64) AppleWebKit/537.36 (KHTML, like Gecko) Chrome/118.0.0.0 Safari/537.36 Edg/118.0.2088.61" etag="ey6W7PHa71BwykoGysY0" version="22.0.7" type="github">
  <diagram name="第 1 页" id="4sbCekVPFbxFVqMmVLAk">
    <mxGraphModel dx="2213" dy="759" grid="1" gridSize="10" guides="1" tooltips="1" connect="1" arrows="1" fold="1" page="1" pageScale="1" pageWidth="827" pageHeight="1169" math="0" shadow="0">
      <root>
        <mxCell id="0" />
        <mxCell id="1" parent="0" />
        <mxCell id="8ymE1CZEhluJDggRTUyg-37" value="" style="rounded=0;whiteSpace=wrap;html=1;fillColor=#d5e8d4;gradientColor=#97d077;strokeColor=#82b366;" vertex="1" parent="1">
          <mxGeometry x="60" y="1360" width="620" height="210" as="geometry" />
        </mxCell>
        <mxCell id="8ymE1CZEhluJDggRTUyg-35" value="" style="rounded=0;whiteSpace=wrap;html=1;dashed=1;strokeWidth=2;" vertex="1" parent="1">
          <mxGeometry x="-90" y="840" width="790" height="490" as="geometry" />
        </mxCell>
        <mxCell id="8ymE1CZEhluJDggRTUyg-14" value="" style="rounded=0;whiteSpace=wrap;html=1;fillColor=#fff2cc;gradientColor=#ffd966;strokeColor=#d6b656;" vertex="1" parent="1">
          <mxGeometry x="60" y="860" width="620" height="310" as="geometry" />
        </mxCell>
        <mxCell id="8ymE1CZEhluJDggRTUyg-18" value="" style="rounded=0;whiteSpace=wrap;html=1;fillColor=#f5f5f5;strokeColor=#666666;gradientColor=#b3b3b3;" vertex="1" parent="1">
          <mxGeometry x="-70" y="750" width="110" height="80" as="geometry" />
        </mxCell>
        <mxCell id="8ymE1CZEhluJDggRTUyg-20" value="" style="rounded=0;whiteSpace=wrap;html=1;fillColor=#f5f5f5;gradientColor=#b3b3b3;strokeColor=#666666;" vertex="1" parent="1">
          <mxGeometry x="-70" y="1211" width="110" height="80" as="geometry" />
        </mxCell>
        <mxCell id="8ymE1CZEhluJDggRTUyg-19" value="" style="rounded=0;whiteSpace=wrap;html=1;fillColor=#f5f5f5;gradientColor=#b3b3b3;strokeColor=#666666;" vertex="1" parent="1">
          <mxGeometry x="-70" y="860" width="110" height="310" as="geometry" />
        </mxCell>
        <mxCell id="8ymE1CZEhluJDggRTUyg-1" value="前端Nginx" style="fontColor=#0066CC;verticalAlign=top;verticalLabelPosition=bottom;labelPosition=center;align=center;html=1;outlineConnect=0;fillColor=#CCCCCC;strokeColor=#6881B3;gradientColor=none;gradientDirection=north;strokeWidth=2;shape=mxgraph.networks.load_balancer;" vertex="1" parent="1">
          <mxGeometry x="170" y="340" width="100" height="30" as="geometry" />
        </mxCell>
        <mxCell id="8ymE1CZEhluJDggRTUyg-2" value="后端Nginx" style="fontColor=#0066CC;verticalAlign=top;verticalLabelPosition=bottom;labelPosition=center;align=center;html=1;outlineConnect=0;fillColor=#CCCCCC;strokeColor=#6881B3;gradientColor=none;gradientDirection=north;strokeWidth=2;shape=mxgraph.networks.load_balancer;" vertex="1" parent="1">
          <mxGeometry x="170" y="500" width="100" height="30" as="geometry" />
        </mxCell>
        <mxCell id="8ymE1CZEhluJDggRTUyg-5" value="" style="image;sketch=0;aspect=fixed;html=1;points=[];align=center;fontSize=12;image=img/lib/mscae/Cache_Redis_Product.svg;" vertex="1" parent="1">
          <mxGeometry x="670" y="380" width="50" height="42" as="geometry" />
        </mxCell>
        <mxCell id="8ymE1CZEhluJDggRTUyg-6" value="" style="image;sketch=0;aspect=fixed;html=1;points=[];align=center;fontSize=12;image=img/lib/mscae/Azure_Database_for_MySQL_servers.svg;" vertex="1" parent="1">
          <mxGeometry x="676" y="485" width="38" height="50" as="geometry" />
        </mxCell>
        <mxCell id="8ymE1CZEhluJDggRTUyg-8" value="" style="sketch=0;aspect=fixed;pointerEvents=1;shadow=0;dashed=0;html=1;strokeColor=none;labelPosition=center;verticalLabelPosition=bottom;verticalAlign=top;align=center;fillColor=#00188D;shape=mxgraph.mscae.enterprise.web_server" vertex="1" parent="1">
          <mxGeometry x="376" y="340" width="38" height="50" as="geometry" />
        </mxCell>
        <mxCell id="8ymE1CZEhluJDggRTUyg-9" value="" style="sketch=0;aspect=fixed;pointerEvents=1;shadow=0;dashed=0;html=1;strokeColor=none;labelPosition=center;verticalLabelPosition=bottom;verticalAlign=top;align=center;fillColor=#00188D;shape=mxgraph.mscae.enterprise.server_generic" vertex="1" parent="1">
          <mxGeometry x="376" y="500" width="24" height="50" as="geometry" />
        </mxCell>
        <mxCell id="8ymE1CZEhluJDggRTUyg-11" value="&lt;b&gt;业务架构图&lt;/b&gt;" style="text;html=1;align=center;verticalAlign=middle;resizable=0;points=[];autosize=1;strokeColor=none;fillColor=none;" vertex="1" parent="1">
          <mxGeometry x="-200" y="690" width="80" height="30" as="geometry" />
        </mxCell>
        <mxCell id="8ymE1CZEhluJDggRTUyg-13" value="" style="rounded=0;whiteSpace=wrap;html=1;fillColor=#f8cecc;gradientColor=#ea6b66;strokeColor=#b85450;" vertex="1" parent="1">
          <mxGeometry x="60" y="750" width="620" height="80" as="geometry" />
        </mxCell>
        <mxCell id="8ymE1CZEhluJDggRTUyg-15" value="" style="rounded=0;whiteSpace=wrap;html=1;fillColor=#dae8fc;gradientColor=#7ea6e0;strokeColor=#6c8ebf;" vertex="1" parent="1">
          <mxGeometry x="60" y="1211" width="620" height="80" as="geometry" />
        </mxCell>
        <mxCell id="8ymE1CZEhluJDggRTUyg-17" value="基础功能" style="text;html=1;strokeColor=none;fillColor=none;align=center;verticalAlign=middle;whiteSpace=wrap;rounded=0;" vertex="1" parent="1">
          <mxGeometry x="-45.5" y="970" width="60" height="30" as="geometry" />
        </mxCell>
        <mxCell id="8ymE1CZEhluJDggRTUyg-21" value="高阶运维功能" style="text;html=1;strokeColor=none;fillColor=none;align=center;verticalAlign=middle;whiteSpace=wrap;rounded=0;" vertex="1" parent="1">
          <mxGeometry x="-53" y="1234" width="75" height="35" as="geometry" />
        </mxCell>
        <mxCell id="8ymE1CZEhluJDggRTUyg-22" value="首页" style="rounded=0;whiteSpace=wrap;html=1;fillColor=#dae8fc;strokeColor=#6c8ebf;" vertex="1" parent="1">
          <mxGeometry x="97" y="900" width="93" height="60" as="geometry" />
        </mxCell>
        <mxCell id="8ymE1CZEhluJDggRTUyg-23" value="服务目录" style="rounded=0;whiteSpace=wrap;html=1;fillColor=#a0522d;strokeColor=#6D1F00;fontColor=#ffffff;" vertex="1" parent="1">
          <mxGeometry x="97" y="990" width="93" height="60" as="geometry" />
        </mxCell>
        <mxCell id="8ymE1CZEhluJDggRTUyg-24" value="业务资源纳管" style="rounded=0;whiteSpace=wrap;html=1;fillColor=#d5e8d4;strokeColor=#82b366;" vertex="1" parent="1">
          <mxGeometry x="246" y="900" width="98" height="60" as="geometry" />
        </mxCell>
        <mxCell id="8ymE1CZEhluJDggRTUyg-25" value="业务资源分析" style="rounded=0;whiteSpace=wrap;html=1;fillColor=#e1d5e7;strokeColor=#9673a6;" vertex="1" parent="1">
          <mxGeometry x="246" y="990" width="98" height="60" as="geometry" />
        </mxCell>
        <mxCell id="8ymE1CZEhluJDggRTUyg-26" value="业务深度监控" style="rounded=0;whiteSpace=wrap;html=1;fillColor=#ffe6cc;strokeColor=#d79b00;" vertex="1" parent="1">
          <mxGeometry x="403" y="899" width="100" height="60" as="geometry" />
        </mxCell>
        <mxCell id="8ymE1CZEhluJDggRTUyg-27" value="业务资源巡检" style="rounded=0;whiteSpace=wrap;html=1;fillColor=#60a917;fontColor=#ffffff;strokeColor=#2D7600;" vertex="1" parent="1">
          <mxGeometry x="402.5" y="989" width="100.5" height="60" as="geometry" />
        </mxCell>
        <mxCell id="8ymE1CZEhluJDggRTUyg-28" value="系统管理" style="rounded=0;whiteSpace=wrap;html=1;fillColor=#1ba1e2;fontColor=#ffffff;strokeColor=#006EAF;" vertex="1" parent="1">
          <mxGeometry x="553" y="990" width="93" height="60" as="geometry" />
        </mxCell>
        <mxCell id="8ymE1CZEhluJDggRTUyg-29" value="重大事件保障" style="rounded=0;whiteSpace=wrap;html=1;fillColor=#d5e8d4;strokeColor=#82b366;" vertex="1" parent="1">
          <mxGeometry x="230" y="1221" width="98" height="60" as="geometry" />
        </mxCell>
        <mxCell id="8ymE1CZEhluJDggRTUyg-30" value="高阶链路拨测" style="rounded=0;whiteSpace=wrap;html=1;fillColor=#ffe6cc;strokeColor=#d79b00;" vertex="1" parent="1">
          <mxGeometry x="364" y="1221" width="100" height="60" as="geometry" />
        </mxCell>
        <mxCell id="8ymE1CZEhluJDggRTUyg-31" value="数据库监控" style="rounded=0;whiteSpace=wrap;html=1;fillColor=#76608a;fontColor=#ffffff;strokeColor=#432D57;" vertex="1" parent="1">
          <mxGeometry x="549" y="899" width="100.5" height="60" as="geometry" />
        </mxCell>
        <mxCell id="8ymE1CZEhluJDggRTUyg-32" value="云管配置中心" style="rounded=0;whiteSpace=wrap;html=1;fillColor=#647687;strokeColor=#314354;fontColor=#ffffff;" vertex="1" parent="1">
          <mxGeometry x="97" y="1079" width="93" height="60" as="geometry" />
        </mxCell>
        <mxCell id="8ymE1CZEhluJDggRTUyg-36" value="" style="rounded=0;whiteSpace=wrap;html=1;fillColor=#f5f5f5;gradientColor=#b3b3b3;strokeColor=#666666;" vertex="1" parent="1">
          <mxGeometry x="-70" y="1360" width="110" height="210" as="geometry" />
        </mxCell>
        <mxCell id="8ymE1CZEhluJDggRTUyg-38" value="中间件" style="text;html=1;strokeColor=none;fillColor=none;align=center;verticalAlign=middle;whiteSpace=wrap;rounded=0;" vertex="1" parent="1">
          <mxGeometry x="-53" y="1383" width="75" height="35" as="geometry" />
        </mxCell>
        <mxCell id="8ymE1CZEhluJDggRTUyg-41" value="Redis" style="image;sketch=0;aspect=fixed;html=1;points=[];align=center;fontSize=12;image=img/lib/mscae/Cache_Redis_Product.svg;" vertex="1" parent="1">
          <mxGeometry x="97" y="1440" width="50" height="42" as="geometry" />
        </mxCell>
        <mxCell id="8ymE1CZEhluJDggRTUyg-42" value="" style="rounded=0;whiteSpace=wrap;html=1;dashed=1;fillColor=#b0e3e6;strokeColor=#0e8088;" vertex="1" parent="1">
          <mxGeometry x="160" y="1395" width="100" height="145" as="geometry" />
        </mxCell>
        <mxCell id="8ymE1CZEhluJDggRTUyg-44" value="celery broker" style="rounded=0;whiteSpace=wrap;html=1;fillColor=#fad9d5;strokeColor=#ae4132;" vertex="1" parent="1">
          <mxGeometry x="180" y="1424" width="60" height="30" as="geometry" />
        </mxCell>
        <mxCell id="8ymE1CZEhluJDggRTUyg-45" value="celery result" style="rounded=0;whiteSpace=wrap;html=1;fillColor=#d0cee2;strokeColor=#56517e;" vertex="1" parent="1">
          <mxGeometry x="180" y="1478" width="60" height="30" as="geometry" />
        </mxCell>
        <mxCell id="8ymE1CZEhluJDggRTUyg-46" value="" style="rounded=0;whiteSpace=wrap;html=1;fillColor=#e6d0de;gradientColor=#d5739d;strokeColor=#996185;" vertex="1" parent="1">
          <mxGeometry x="60" y="1610" width="620" height="210" as="geometry" />
        </mxCell>
        <mxCell id="8ymE1CZEhluJDggRTUyg-47" value="" style="rounded=0;whiteSpace=wrap;html=1;fillColor=#f5f5f5;gradientColor=#b3b3b3;strokeColor=#666666;" vertex="1" parent="1">
          <mxGeometry x="-70" y="1610" width="110" height="210" as="geometry" />
        </mxCell>
        <mxCell id="8ymE1CZEhluJDggRTUyg-48" value="存储" style="text;html=1;strokeColor=none;fillColor=none;align=center;verticalAlign=middle;whiteSpace=wrap;rounded=0;" vertex="1" parent="1">
          <mxGeometry x="-53" y="1633" width="75" height="35" as="geometry" />
        </mxCell>
        <mxCell id="8ymE1CZEhluJDggRTUyg-50" value="" style="rounded=0;whiteSpace=wrap;html=1;dashed=1;fillColor=#b0e3e6;strokeColor=#0e8088;" vertex="1" parent="1">
          <mxGeometry x="160" y="1645" width="100" height="105" as="geometry" />
        </mxCell>
        <mxCell id="8ymE1CZEhluJDggRTUyg-54" value="" style="image;sketch=0;aspect=fixed;html=1;points=[];align=center;fontSize=12;image=img/lib/mscae/Azure_Database_for_MySQL_servers.svg;" vertex="1" parent="1">
          <mxGeometry x="190" y="1668" width="38" height="50" as="geometry" />
        </mxCell>
        <mxCell id="8ymE1CZEhluJDggRTUyg-61" value="Redis" style="image;sketch=0;aspect=fixed;html=1;points=[];align=center;fontSize=12;image=img/lib/mscae/Cache_Redis_Product.svg;" vertex="1" parent="1">
          <mxGeometry x="288.5" y="1690" width="50" height="42" as="geometry" />
        </mxCell>
        <mxCell id="8ymE1CZEhluJDggRTUyg-62" value="" style="rounded=0;whiteSpace=wrap;html=1;dashed=1;fillColor=#b0e3e6;strokeColor=#0e8088;" vertex="1" parent="1">
          <mxGeometry x="351.5" y="1645" width="100" height="145" as="geometry" />
        </mxCell>
        <mxCell id="8ymE1CZEhluJDggRTUyg-63" value="应用缓存" style="rounded=0;whiteSpace=wrap;html=1;fillColor=#fad7ac;strokeColor=#b46504;" vertex="1" parent="1">
          <mxGeometry x="371.5" y="1700" width="60" height="30" as="geometry" />
        </mxCell>
      </root>
    </mxGraphModel>
  </diagram>
</mxfile>
